<svg width="18" height="18" viewBox="0 0 18 18" fill="none" xmlns="http://www.w3.org/2000/svg">
<path d="M1.31679 5.69858C1.01409 5.61451 0.836956 5.30101 0.920973 4.99837L0.920979 4.99835C1.00507 4.69571 1.31862 4.51847 1.62123 4.60258L4.62843 5.43791L8.43137 6.49427V1.6798C8.43137 1.54749 8.44311 1.35885 8.51759 1.20031C8.55559 1.11943 8.61142 1.04311 8.6931 0.98728C8.77543 0.931014 8.87752 0.900031 9.00012 0.900031C9.22132 0.900031 9.37047 0.99756 9.45924 1.13884C9.54381 1.27343 9.56887 1.43941 9.56887 1.57823L9.56887 6.81024L13.6657 7.94823L16.6835 8.78646C16.9862 8.87052 17.1633 9.18403 17.0793 9.48666L17.0793 9.48669C17.0093 9.73854 16.7806 9.90332 16.5315 9.90332C16.4811 9.90332 16.4298 9.89656 16.3791 9.88246C16.3791 9.88246 16.379 9.88245 16.379 9.88245L14.7397 9.42707L17.0189 13.2263L16.9348 13.2768L17.0189 13.2263C17.0719 13.3147 17.0999 13.4158 17.0999 13.5189C17.0999 15.4936 15.4935 17.1 13.5188 17.1C11.544 17.1 9.93762 15.4936 9.93762 13.5189C9.93762 13.4159 9.96564 13.3147 10.0187 13.2263C10.0187 13.2263 10.0187 13.2263 10.0187 13.2263L12.6468 8.84575L5.70237 6.91678L7.9816 10.716L7.9816 10.716C8.03459 10.8043 8.06266 10.9055 8.06266 11.0086C8.06266 12.9833 6.45623 14.5897 4.48151 14.5897C3.52514 14.5897 2.62552 14.2171 1.94921 13.5408L2.01992 13.4701L1.94921 13.5408C1.27293 12.8645 0.900296 11.9649 0.90036 11.0085L1.00036 11.0085L0.90036 11.0086C0.900284 10.9055 0.928313 10.8043 0.981359 10.716L1.06711 10.7674L0.981377 10.7159L3.60943 6.33543M1.31679 5.69858L1.31678 5.69858L1.34355 5.60223L1.31679 5.69858ZM1.31679 5.69858L3.60943 6.33543M3.60943 6.33543L3.70939 6.3632L3.6628 6.24647L3.60943 6.33543ZM1.01733 5.02512C1.08664 4.77568 1.34508 4.62962 1.59445 4.69893L4.60166 5.53426L8.43137 6.59806L1.01733 5.02512ZM8.53137 6.52205V1.6798C8.53137 1.42092 8.57973 1.00003 9.00012 1.00003C9.37366 1.00003 9.46887 1.31935 9.46887 1.57823V6.88625L13.639 8.04458L16.6567 8.88281C16.9062 8.95209 17.0522 9.21047 16.9829 9.45991C16.9253 9.66738 16.7369 9.80332 16.5315 9.80332C16.49 9.80332 16.4478 9.79776 16.4058 9.7861L14.665 9.30253L8.53137 6.52205ZM15.8951 14.0876C15.6381 15.1616 14.6702 15.9625 13.5188 15.9625C12.3674 15.9625 11.3995 15.1616 11.1425 14.0876H15.8951ZM13.5188 9.6032L15.5267 12.9501H11.5108L13.5188 9.6032ZM6.48949 10.4398H2.47347L4.48151 7.09287L6.48949 10.4398ZM4.48145 13.4522C3.33007 13.4522 2.36217 12.6513 2.10507 11.5773H6.85785C6.60075 12.6513 5.6328 13.4522 4.48145 13.4522Z" fill="#003466" stroke="#003466" stroke-width="0.2"/>
</svg>
